<?xml version="1.0" encoding="UTF-8"?>
<!DOCTYPE svg PUBLIC "-//W3C//DTD SVG 1.1//EN" "http://www.w3.org/Graphics/SVG/1.1/DTD/svg11.dtd">
<svg xmlns="http://www.w3.org/2000/svg" version="1.1" width="252px" height="72px" style="shape-rendering:geometricPrecision; text-rendering:geometricPrecision; image-rendering:optimizeQuality; fill-rule:evenodd; clip-rule:evenodd" xmlns:xlink="http://www.w3.org/1999/xlink">
<g><path style="opacity:0.875" fill="#f8ed31" d="M 31.5,-0.5 C 32.1667,-0.5 32.8333,-0.5 33.5,-0.5C 34.9485,2.05142 34.6152,4.38476 32.5,6.5C 30.2547,4.43337 29.9213,2.10003 31.5,-0.5 Z"/></g>
<g><path style="opacity:0.76" fill="#f8ec31" d="M 27.5,9.5 C 26.1104,7.00018 26.2771,4.66685 28,2.5C 31.474,5.32607 31.3074,7.65941 27.5,9.5 Z"/></g>
<g><path style="opacity:0.875" fill="#f9ed31" d="M 38.5,8.5 C 36.5474,9.90531 35.5474,9.23864 35.5,6.5C 35.3422,4.68144 36.0089,3.3481 37.5,2.5C 38.4656,4.39605 38.7989,6.39605 38.5,8.5 Z"/></g>
<g><path style="opacity:0.808" fill="#f8ed31" d="M 44.5,11.5 C 43.8333,11.5 43.5,11.8333 43.5,12.5C 41.8792,9.63334 42.5459,7.3 45.5,5.5C 46.7698,7.75681 46.4364,9.75681 44.5,11.5 Z"/></g>
<g><path style="opacity:0.875" fill="#f8ed31" d="M 34.5,11.5 C 34.5,11.8333 34.5,12.1667 34.5,12.5C 33.8333,12.5 33.5,12.8333 33.5,13.5C 33.5,13.8333 33.5,14.1667 33.5,14.5C 33.1667,14.5 32.8333,14.5 32.5,14.5C 32.1667,14.5 31.8333,14.5 31.5,14.5C 31.4431,13.391 31.1098,12.391 30.5,11.5C 31.9704,6.24281 33.3037,6.24281 34.5,11.5 Z"/></g>
<g><path style="opacity:0.82" fill="#f8ed31" d="M 27.5,9.5 C 27.5,10.5 27.5,11.5 27.5,12.5C 27.5,13.1667 27.5,13.8333 27.5,14.5C 26.609,13.8902 25.609,13.5569 24.5,13.5C 24.631,12.7611 24.4643,12.0944 24,11.5C 23.3292,12.2524 22.4959,12.5858 21.5,12.5C 21.5,11.8333 21.1667,11.5 20.5,11.5C 18.864,9.61651 18.5307,7.61651 19.5,5.5C 21.1965,6.36359 22.3632,7.69692 23,9.5C 23.3076,8.69194 23.8076,8.02527 24.5,7.5C 25.5178,8.19251 26.5178,8.85917 27.5,9.5 Z"/></g>
<g><path style="opacity:0.778" fill="#f8ed31" d="M 40.5,13.5 C 39.8333,13.8333 39.1667,14.1667 38.5,14.5C 38.1667,14.5 37.8333,14.5 37.5,14.5C 37.5,13.5 37.5,12.5 37.5,11.5C 38.1098,10.609 38.4431,9.60895 38.5,8.5C 40.3176,6.92192 41.3176,7.42192 41.5,10C 41.3517,11.2559 41.0184,12.4226 40.5,13.5 Z"/></g>
<g><path style="opacity:0.788" fill="#ff4349" d="M 199.5,9.5 C 204.123,8.40815 205.956,10.0748 205,14.5C 199.42,16.7516 197.587,15.0849 199.5,9.5 Z"/></g>
<g><path style="opacity:0.659" fill="#d2bd28" d="M 30.5,11.5 C 31.1098,12.391 31.4431,13.391 31.5,14.5C 31.5,14.8333 31.5,15.1667 31.5,15.5C 31.6716,16.4916 31.3382,17.1583 30.5,17.5C 29.2719,16.6935 28.2719,15.6935 27.5,14.5C 27.5,13.8333 27.5,13.1667 27.5,12.5C 28.2216,12.0825 28.7216,11.4158 29,10.5C 29.3826,11.056 29.8826,11.3893 30.5,11.5 Z"/></g>
<g><path style="opacity:0.64" fill="#d2be28" d="M 37.5,11.5 C 37.5,12.5 37.5,13.5 37.5,14.5C 37.5,14.8333 37.5,15.1667 37.5,15.5C 36.6618,15.8417 36.3284,16.5084 36.5,17.5C 35.8333,17.5 35.1667,17.5 34.5,17.5C 33.8902,16.609 33.5569,15.609 33.5,14.5C 33.5,14.1667 33.5,13.8333 33.5,13.5C 34.1667,13.5 34.5,13.1667 34.5,12.5C 34.5,12.1667 34.5,11.8333 34.5,11.5C 35.5,10.1667 36.5,10.1667 37.5,11.5 Z"/></g>
<g><path style="opacity:0.833" fill="#f8ed31" d="M 52.5,17.5 C 51.8333,17.5 51.5,17.8333 51.5,18.5C 50.8333,18.5 50.5,18.8333 50.5,19.5C 49.5,19.5 48.5,19.5 47.5,19.5C 47.5,18.5 47.5,17.5 47.5,16.5C 47.7151,15.266 47.0484,15.266 45.5,16.5C 44.8333,16.8333 44.1667,17.1667 43.5,17.5C 43.1667,17.5 42.8333,17.5 42.5,17.5C 42.1667,17.5 41.8333,17.5 41.5,17.5C 41.5,16.8333 41.5,16.1667 41.5,15.5C 42.4013,14.7095 43.0679,13.7095 43.5,12.5C 44.1667,12.5 44.5,12.1667 44.5,11.5C 45.7498,11.5774 46.5831,12.244 47,13.5C 50.1361,8.12055 51.3028,8.28722 50.5,14C 51.5,14.3333 52.5,14.6667 53.5,15C 52.7476,15.6708 52.4142,16.5041 52.5,17.5 Z"/></g>
<g><path style="opacity:0.894" fill="#ff4349" d="M 93.5,10.5 C 99.7114,10.0161 105.711,10.8494 111.5,13C 117.791,20.0463 118.124,27.3796 112.5,35C 111.167,35.6667 109.833,36.3333 108.5,37C 103.511,37.4993 98.5111,37.6659 93.5,37.5C 93.5,28.5 93.5,19.5 93.5,10.5 Z M 99.5,16.5 C 106.071,15.4244 109.404,18.091 109.5,24.5C 109.404,30.909 106.071,33.5756 99.5,32.5C 99.5,27.1667 99.5,21.8333 99.5,16.5 Z"/></g>
<g><path style="opacity:0.688" fill="#d2bd28" d="M 24.5,13.5 C 25.609,13.5569 26.609,13.8902 27.5,14.5C 27.5,15.8333 27.5,17.1667 27.5,18.5C 27.5,18.8333 27.5,19.1667 27.5,19.5C 27.1667,19.5 26.8333,19.5 26.5,19.5C 25.8333,19.1667 25.1667,18.8333 24.5,18.5C 24.6716,17.5084 24.3382,16.8417 23.5,16.5C 23.5,15.8333 23.5,15.1667 23.5,14.5C 23.5,13.8333 23.8333,13.5 24.5,13.5 Z"/></g>
<g><path style="opacity:0.64" fill="#d2bd28" d="M 40.5,13.5 C 41.3382,13.8417 41.6716,14.5084 41.5,15.5C 41.5,16.1667 41.5,16.8333 41.5,17.5C 40.8333,17.5 40.5,17.8333 40.5,18.5C 39.8333,18.8333 39.1667,19.1667 38.5,19.5C 38.1667,19.5 37.8333,19.5 37.5,19.5C 37.5,18.8333 37.5,18.1667 37.5,17.5C 37.5,16.8333 37.5,16.1667 37.5,15.5C 38.1667,15.5 38.5,15.1667 38.5,14.5C 39.1667,14.1667 39.8333,13.8333 40.5,13.5 Z"/></g>
<g><path style="opacity:0.872" fill="#ff4349" d="M 186.5,12.5 C 188.5,12.5 190.5,12.5 192.5,12.5C 192.5,14.1667 192.5,15.8333 192.5,17.5C 193.833,17.5 195.167,17.5 196.5,17.5C 196.5,19.1667 196.5,20.8333 196.5,22.5C 195.167,22.5 193.833,22.5 192.5,22.5C 192.5,25.8333 192.5,29.1667 192.5,32.5C 195.997,32.995 196.997,34.8283 195.5,38C 192.15,38.9299 189.317,38.0965 187,35.5C 186.501,31.1794 186.334,26.8461 186.5,22.5C 185.5,22.5 184.5,22.5 183.5,22.5C 183.5,20.8333 183.5,19.1667 183.5,17.5C 184.5,17.5 185.5,17.5 186.5,17.5C 186.5,15.8333 186.5,14.1667 186.5,12.5 Z"/></g>
<g><path style="opacity:0.875" fill="#f8ec31" d="M 20.5,11.5 C 21.1667,11.5 21.5,11.8333 21.5,12.5C 21.8333,13.5 22.5,14.1667 23.5,14.5C 23.5,15.1667 23.5,15.8333 23.5,16.5C 23.1583,17.3382 22.4916,17.6716 21.5,17.5C 20.8333,17.1667 20.1667,16.8333 19.5,16.5C 19.631,15.7611 19.4643,15.0944 19,14.5C 18.3292,15.2524 17.4959,15.5858 16.5,15.5C 16.5,16.1667 16.8333,16.5 17.5,16.5C 17.5,17.1667 17.5,17.8333 17.5,18.5C 17.5,18.8333 17.5,19.1667 17.5,19.5C 16.5,19.5 15.5,19.5 14.5,19.5C 14.5,18.8333 14.1667,18.5 13.5,18.5C 13.5,17.8333 13.1667,17.5 12.5,17.5C 14.3758,15.0275 15.0425,12.3608 14.5,9.5C 15.8139,10.3128 16.9805,11.3128 18,12.5C 18.6708,11.7476 19.5041,11.4142 20.5,11.5 Z M 19.5,16.5 C 18.8333,16.5 18.1667,16.5 17.5,16.5C 16.8333,16.5 16.5,16.1667 16.5,15.5C 17.4959,15.5858 18.3292,15.2524 19,14.5C 19.4643,15.0944 19.631,15.7611 19.5,16.5 Z"/></g>
<g><path style="opacity:0.784" fill="#009243" d="M 32.5,14.5 C 32.8333,14.5 33.1667,14.5 33.5,14.5C 33.5569,15.609 33.8902,16.609 34.5,17.5C 34.5,18.1667 34.5,18.8333 34.5,19.5C 34.5,19.8333 34.5,20.1667 34.5,20.5C 33.8333,20.5 33.5,20.8333 33.5,21.5C 33.5,21.8333 33.5,22.1667 33.5,22.5C 33.1667,22.5 32.8333,22.5 32.5,22.5C 32.5,21.8333 32.1667,21.5 31.5,21.5C 31.5,21.1667 31.5,20.8333 31.5,20.5C 31.5,19.8333 31.1667,19.5 30.5,19.5C 30.5,19.1667 30.5,18.8333 30.5,18.5C 30.5,18.1667 30.5,17.8333 30.5,17.5C 31.3382,17.1583 31.6716,16.4916 31.5,15.5C 32.1667,15.5 32.5,15.1667 32.5,14.5 Z"/></g>
<g><path style="opacity:0.622" fill="#d2bd28" d="M 45.5,16.5 C 46.1667,16.5 46.8333,16.5 47.5,16.5C 47.5,17.5 47.5,18.5 47.5,19.5C 46.8333,19.5 46.5,19.8333 46.5,20.5C 45.8333,20.5 45.5,20.8333 45.5,21.5C 44.5,21.5 43.5,21.5 42.5,21.5C 42.5,20.5 42.5,19.5 42.5,18.5C 43.1667,18.5 43.5,18.1667 43.5,17.5C 44.1667,17.1667 44.8333,16.8333 45.5,16.5 Z"/></g>
<g><path style="opacity:0.739" fill="#d2bd28" d="M 17.5,16.5 C 18.1667,16.5 18.8333,16.5 19.5,16.5C 20.1667,16.8333 20.8333,17.1667 21.5,17.5C 21.5,18.1667 21.8333,18.5 22.5,18.5C 22.5,19.5 22.5,20.5 22.5,21.5C 20.9519,21.8212 20.2852,22.8212 20.5,24.5C 19.8333,24.5 19.1667,24.5 18.5,24.5C 18.1583,23.6618 17.4916,23.3284 16.5,23.5C 16.5,22.8333 16.1667,22.5 15.5,22.5C 14.8333,22.5 14.5,22.1667 14.5,21.5C 14.5,20.8333 14.5,20.1667 14.5,19.5C 15.5,19.5 16.5,19.5 17.5,19.5C 18.6441,20.1826 18.6441,19.8493 17.5,18.5C 17.5,17.8333 17.5,17.1667 17.5,16.5 Z"/></g>
<g><path style="opacity:0.895" fill="#ff4349" d="M 124.5,17.5 C 135.824,16.3248 140.324,21.3248 138,32.5C 133.411,39.0989 127.744,40.0989 121,35.5C 116.947,28.332 118.113,22.332 124.5,17.5 Z M 126.5,22.5 C 131.989,23.1307 133.656,26.1307 131.5,31.5C 129.608,34.0443 127.775,34.0443 126,31.5C 125.264,28.408 125.431,25.408 126.5,22.5 Z"/></g>
<g><path style="opacity:0.891" fill="#ff4449" d="M 141.5,17.5 C 144.079,17.0833 146.246,17.75 148,19.5C 151.598,16.9107 155.264,16.9107 159,19.5C 160.41,25.3792 160.91,31.3792 160.5,37.5C 158.5,37.5 156.5,37.5 154.5,37.5C 154.666,33.1539 154.499,28.8206 154,24.5C 152,21.8333 150,21.8333 148,24.5C 147.501,28.8206 147.334,33.1539 147.5,37.5C 145.5,37.5 143.5,37.5 141.5,37.5C 141.5,30.8333 141.5,24.1667 141.5,17.5 Z"/></g>
<g><path style="opacity:0.857" fill="#ff4349" d="M 167.5,17.5 C 171.911,17.021 176.078,17.6876 180,19.5C 181.41,25.3792 181.91,31.3792 181.5,37.5C 179.208,37.7564 177.041,37.4231 175,36.5C 169.055,39.9446 164.889,38.4446 162.5,32C 163.069,29.0971 164.735,27.0971 167.5,26C 170.371,25.8823 173.038,25.2156 175.5,24C 174.737,23.0565 173.737,22.5565 172.5,22.5C 169.628,24.8 166.628,24.9666 163.5,23C 164.665,21.0083 165.998,19.175 167.5,17.5 Z M 170.5,29.5 C 172.288,29.2148 173.955,29.5481 175.5,30.5C 174.278,32.9783 172.278,33.9783 169.5,33.5C 169.433,32.0413 169.766,30.7079 170.5,29.5 Z"/></g>
<g><path style="opacity:0.759" fill="#ff4349" d="M 198.5,17.5 C 200.833,17.5 203.167,17.5 205.5,17.5C 205.5,24.1667 205.5,30.8333 205.5,37.5C 203.167,37.5 200.833,37.5 198.5,37.5C 198.5,30.8333 198.5,24.1667 198.5,17.5 Z"/></g>
<g><path style="opacity:0.9" fill="#ff4349" d="M 213.5,17.5 C 225.162,15.9972 229.662,20.9972 227,32.5C 221.451,39.9769 215.451,40.3102 209,33.5C 206.569,26.9708 208.069,21.6374 213.5,17.5 Z M 215.5,22.5 C 220.989,22.504 222.822,25.1707 221,30.5C 219.321,33.6992 217.321,34.0325 215,31.5C 214.366,28.4453 214.532,25.4453 215.5,22.5 Z"/></g>
<g><path style="opacity:0.927" fill="#ff4449" d="M 230.5,17.5 C 233.079,17.0833 235.246,17.75 237,19.5C 240.667,16.8333 244.333,16.8333 248,19.5C 249.41,25.3792 249.91,31.3792 249.5,37.5C 247.5,37.5 245.5,37.5 243.5,37.5C 243.666,33.1539 243.499,28.8206 243,24.5C 240.478,21.6736 238.478,22.0069 237,25.5C 236.501,29.4862 236.334,33.4862 236.5,37.5C 234.5,37.5 232.5,37.5 230.5,37.5C 230.5,30.8333 230.5,24.1667 230.5,17.5 Z"/></g>
<g><path style="opacity:0.717" fill="#009342" d="M 22.5,18.5 C 23.1667,18.5 23.8333,18.5 24.5,18.5C 25.1667,18.8333 25.8333,19.1667 26.5,19.5C 26.5,20.1667 26.8333,20.5 27.5,20.5C 27.5,21.1667 27.5,21.8333 27.5,22.5C 27.1583,23.3382 26.4916,23.6716 25.5,23.5C 24.8333,23.1667 24.1667,22.8333 23.5,22.5C 23.5,21.8333 23.1667,21.5 22.5,21.5C 22.5,20.5 22.5,19.5 22.5,18.5 Z"/></g>
<g><path style="opacity:0.636" fill="#006838" d="M 27.5,18.5 C 28.5,18.5 29.5,18.5 30.5,18.5C 30.5,18.8333 30.5,19.1667 30.5,19.5C 31.1667,19.5 31.5,19.8333 31.5,20.5C 31.5,20.8333 31.5,21.1667 31.5,21.5C 31.5,21.8333 31.5,22.1667 31.5,22.5C 31.6716,23.4916 31.3382,24.1583 30.5,24.5C 30.1667,24.5 29.8333,24.5 29.5,24.5C 29.1667,24.5 28.8333,24.5 28.5,24.5C 28.6716,23.5084 28.3382,22.8417 27.5,22.5C 27.5,21.8333 27.5,21.1667 27.5,20.5C 27.5,20.1667 27.5,19.8333 27.5,19.5C 27.5,19.1667 27.5,18.8333 27.5,18.5 Z"/></g>
<g><path style="opacity:0.662" fill="#006737" d="M 36.5,17.5 C 36.8333,17.5 37.1667,17.5 37.5,17.5C 37.5,18.1667 37.5,18.8333 37.5,19.5C 37.5,20.1667 37.5,20.8333 37.5,21.5C 37.5,22.1667 37.5,22.8333 37.5,23.5C 36.8333,23.5 36.5,23.8333 36.5,24.5C 36.1667,24.5 35.8333,24.5 35.5,24.5C 35.1667,24.5 34.8333,24.5 34.5,24.5C 34.1667,23.8333 33.8333,23.1667 33.5,22.5C 33.5,22.1667 33.5,21.8333 33.5,21.5C 34.1667,21.5 34.5,21.1667 34.5,20.5C 34.5,20.1667 34.5,19.8333 34.5,19.5C 35.5,19.1667 36.1667,18.5 36.5,17.5 Z"/></g>
<g><path style="opacity:0.741" fill="#009244" d="M 41.5,17.5 C 41.8333,17.5 42.1667,17.5 42.5,17.5C 42.5,17.8333 42.5,18.1667 42.5,18.5C 42.5,19.5 42.5,20.5 42.5,21.5C 41.8333,21.5 41.5,21.8333 41.5,22.5C 40.8333,22.8333 40.1667,23.1667 39.5,23.5C 38.8333,23.5 38.1667,23.5 37.5,23.5C 37.5,22.8333 37.5,22.1667 37.5,21.5C 38.3382,21.1583 38.6716,20.4916 38.5,19.5C 39.1667,19.1667 39.8333,18.8333 40.5,18.5C 41.1667,18.5 41.5,18.1667 41.5,17.5 Z"/></g>
<g><path style="opacity:0.625" fill="#d2be28" d="M 47.5,19.5 C 48.5,19.5 49.5,19.5 50.5,19.5C 50.8333,19.5 51.1667,19.5 51.5,19.5C 51.5,19.8333 51.5,20.1667 51.5,20.5C 50.8333,20.5 50.5,20.8333 50.5,21.5C 50.1667,22.1667 49.8333,22.8333 49.5,23.5C 48.209,23.2627 47.209,23.596 46.5,24.5C 46.1667,24.5 45.8333,24.5 45.5,24.5C 45.5,23.8333 45.1667,23.5 44.5,23.5C 44.5,23.1667 44.5,22.8333 44.5,22.5C 45.1667,22.5 45.5,22.1667 45.5,21.5C 46.1667,21.5 46.5,21.1667 46.5,20.5C 47.1667,20.5 47.5,20.1667 47.5,19.5 Z"/></g>
<g><path style="opacity:0.806" fill="#f8ec31" d="M 55.5,23.5 C 54.8333,23.5 54.5,23.8333 54.5,24.5C 52.5853,24.7845 50.9187,24.4511 49.5,23.5C 49.8333,22.8333 50.1667,22.1667 50.5,21.5C 52.2239,21.5393 52.5573,21.206 51.5,20.5C 51.5,20.1667 51.5,19.8333 51.5,19.5C 51.5,19.1667 51.5,18.8333 51.5,18.5C 52.1667,18.5 52.5,18.1667 52.5,17.5C 54.5111,15.6129 56.5111,15.4463 58.5,17C 57.4495,18.3848 56.1161,19.3848 54.5,20C 55.3366,21.0113 55.67,22.1779 55.5,23.5 Z"/></g>
<g><path style="opacity:0.899" fill="#f8ec31" d="M 12.5,17.5 C 13.1667,17.5 13.5,17.8333 13.5,18.5C 13.5858,19.4959 13.2524,20.3292 12.5,21C 13.0944,21.4643 13.7611,21.631 14.5,21.5C 14.5,22.1667 14.8333,22.5 15.5,22.5C 16.1667,22.5 16.5,22.8333 16.5,23.5C 16.5,23.8333 16.5,24.1667 16.5,24.5C 13.6544,24.9699 11.3211,24.1366 9.5,22C 9.95735,21.586 10.2907,21.086 10.5,20.5C 7.83226,19.485 7.16559,17.8183 8.5,15.5C 9.85989,16.1799 11.1932,16.8466 12.5,17.5 Z"/></g>
<g><path style="opacity:0.692" fill="#006838" d="M 23.5,22.5 C 24.1667,22.8333 24.8333,23.1667 25.5,23.5C 25.5,24.1667 25.8333,24.5 26.5,24.5C 26.5569,25.609 26.8902,26.609 27.5,27.5C 27.1667,27.5 26.8333,27.5 26.5,27.5C 26.1667,27.5 25.8333,27.5 25.5,27.5C 25.1583,26.6618 24.4916,26.3284 23.5,26.5C 22.5,26.1667 21.8333,25.5 21.5,24.5C 21.5,23.1667 22.1667,22.5 23.5,22.5 Z"/></g>
<g><path style="opacity:0.779" fill="#1a4329" d="M 31.5,22.5 C 31.8333,22.5 32.1667,22.5 32.5,22.5C 32.8333,22.5 33.1667,22.5 33.5,22.5C 33.8333,23.1667 34.1667,23.8333 34.5,24.5C 34.8333,25.8333 35.1667,25.8333 35.5,24.5C 35.8333,24.5 36.1667,24.5 36.5,24.5C 37.1667,24.5 37.8333,24.5 38.5,24.5C 38.5,25.5 38.5,26.5 38.5,27.5C 37.8333,27.5 37.5,27.8333 37.5,28.5C 36.8333,28.8333 36.1667,29.1667 35.5,29.5C 34.8333,29.5 34.5,29.8333 34.5,30.5C 34.1667,30.5 33.8333,30.5 33.5,30.5C 32.8333,29.1667 32.1667,29.1667 31.5,30.5C 31.1667,30.5 30.8333,30.5 30.5,30.5C 30.1583,29.6618 29.4916,29.3284 28.5,29.5C 28.5,28.8333 28.1667,28.5 27.5,28.5C 27.5,28.1667 27.5,27.8333 27.5,27.5C 26.8902,26.609 26.5569,25.609 26.5,24.5C 27.1667,24.5 27.8333,24.5 28.5,24.5C 28.8333,24.5 29.1667,24.5 29.5,24.5C 29.8333,25.8333 30.1667,25.8333 30.5,24.5C 31.3382,24.1583 31.6716,23.4916 31.5,22.5 Z"/></g>
<g><path style="opacity:0.625" fill="#006838" d="M 41.5,22.5 C 42.5,22.5 43.5,22.5 44.5,22.5C 44.5,22.8333 44.5,23.1667 44.5,23.5C 44.5,23.8333 44.5,24.1667 44.5,24.5C 43.5,24.8333 42.8333,25.5 42.5,26.5C 41.5084,26.3284 40.8417,26.6618 40.5,27.5C 40.1667,27.5 39.8333,27.5 39.5,27.5C 39.1667,27.5 38.8333,27.5 38.5,27.5C 38.5,26.5 38.5,25.5 38.5,24.5C 39.1667,24.5 39.5,24.1667 39.5,23.5C 40.1667,23.1667 40.8333,22.8333 41.5,22.5 Z"/></g>
<g><path style="opacity:0.882" fill="#f8ec32" d="M 5.5,22.5 C 11.892,24.7115 11.892,25.8782 5.5,26C 2.87491,24.6072 2.87491,23.4405 5.5,22.5 Z"/></g>
<g><path style="opacity:0.801" fill="#f9ec31" d="M 54.5,26.5 C 54.5,26.1667 54.5,25.8333 54.5,25.5C 54.5,25.1667 54.5,24.8333 54.5,24.5C 55.1667,24.5 55.5,24.1667 55.5,23.5C 56.6948,23.3225 57.8615,22.9891 59,22.5C 60.2798,22.6135 61.1131,23.2801 61.5,24.5C 59.4902,26.1713 57.1569,26.838 54.5,26.5 Z"/></g>
<g><path style="opacity:0.854" fill="#009343" d="M 16.5,24.5 C 17.1667,24.5 17.8333,24.5 18.5,24.5C 19.1667,24.5 19.8333,24.5 20.5,24.5C 20.8333,24.5 21.1667,24.5 21.5,24.5C 21.8333,25.5 22.5,26.1667 23.5,26.5C 23.5,26.8333 23.5,27.1667 23.5,27.5C 23.1667,27.5 22.8333,27.5 22.5,27.5C 21.1667,27.5 19.8333,27.5 18.5,27.5C 18.5,26.8333 18.1667,26.5 17.5,26.5C 16.8333,26.5 16.5,26.1667 16.5,25.5C 16.5,25.1667 16.5,24.8333 16.5,24.5 Z"/></g>
<g><path style="opacity:0.786" fill="#009343" d="M 44.5,24.5 C 44.8333,24.5 45.1667,24.5 45.5,24.5C 45.8333,24.5 46.1667,24.5 46.5,24.5C 47.4916,24.3284 48.1583,24.6618 48.5,25.5C 48.1667,26.1667 47.8333,26.8333 47.5,27.5C 46.1667,27.5 44.8333,27.5 43.5,27.5C 43.1667,27.5 42.8333,27.5 42.5,27.5C 42.5,27.1667 42.5,26.8333 42.5,26.5C 42.8333,25.5 43.5,24.8333 44.5,24.5 Z"/></g>
<g><path style="opacity:0.729" fill="#d3be28" d="M 16.5,25.5 C 16.5,26.1667 16.8333,26.5 17.5,26.5C 18.1667,26.5 18.5,26.8333 18.5,27.5C 18.5,27.8333 18.5,28.1667 18.5,28.5C 17.391,28.5569 16.391,28.8902 15.5,29.5C 14.791,28.596 13.791,28.2627 12.5,28.5C 12.5,27.8333 12.1667,27.5 11.5,27.5C 12.5521,25.744 14.2188,25.0773 16.5,25.5 Z"/></g>
<g><path style="opacity:0.673" fill="#d2be27" d="M 48.5,25.5 C 50.5,25.5 52.5,25.5 54.5,25.5C 54.5,25.8333 54.5,26.1667 54.5,26.5C 54.5,26.8333 54.5,27.1667 54.5,27.5C 53.8333,27.8333 53.1667,28.1667 52.5,28.5C 51.5084,28.3284 50.8417,28.6618 50.5,29.5C 50.1667,29.5 49.8333,29.5 49.5,29.5C 49.1583,28.6618 48.4916,28.3284 47.5,28.5C 47.5,28.1667 47.5,27.8333 47.5,27.5C 47.8333,26.8333 48.1667,26.1667 48.5,25.5 Z"/></g>
<g><path style="opacity:0.838" fill="#f9ec31" d="M 54.5,27.5 C 59.9235,27.9996 60.4235,29.333 56,31.5C 54.0503,31.2926 52.8836,30.2926 52.5,28.5C 53.1667,28.1667 53.8333,27.8333 54.5,27.5 Z"/></g>
<g><path style="opacity:0.813" fill="#f9ed31" d="M 11.5,27.5 C 12.1667,27.5 12.5,27.8333 12.5,28.5C 12.0296,29.6935 11.0296,30.3601 9.5,30.5C 8.5,30.3333 7.5,30.1667 6.5,30C 5.16667,29.3333 5.16667,28.6667 6.5,28C 8.13414,27.5065 9.80081,27.3398 11.5,27.5 Z"/></g>
<g><path style="opacity:0.824" fill="#009243" d="M 18.5,28.5 C 19.8333,28.8333 21.1667,29.1667 22.5,29.5C 22.5,30.1667 22.5,30.8333 22.5,31.5C 20.8333,31.5 19.1667,31.5 17.5,31.5C 16.8333,31.5 16.1667,31.5 15.5,31.5C 14.4937,30.6043 14.4937,29.9377 15.5,29.5C 16.391,28.8902 17.391,28.5569 18.5,28.5 Z"/></g>
<g><path style="opacity:0.894" fill="#3c3c3c" d="M 33.5,30.5 C 33.8333,33.1667 34.1667,33.1667 34.5,30.5C 34.5,29.8333 34.8333,29.5 35.5,29.5C 35.8333,30.5 36.5,31.1667 37.5,31.5C 38.1157,32.2022 38.1157,33.2022 37.5,34.5C 35.6993,44.0417 36.5326,53.3751 40,62.5C 42.8747,65.463 46.3747,67.2963 50.5,68C 57.2893,69.2971 63.956,70.4637 70.5,71.5C 46.8333,71.5 23.1667,71.5 -0.5,71.5C -0.5,71.1667 -0.5,70.8333 -0.5,70.5C 9.8929,70.1958 19.3929,67.1958 28,61.5C 32.6546,52.5359 32.4879,43.8692 27.5,35.5C 29.4008,35.7535 30.0674,35.4202 29.5,34.5C 29.5,34.1667 29.5,33.8333 29.5,33.5C 29.2627,32.209 29.596,31.209 30.5,30.5C 30.8333,31.8333 31.1667,31.8333 31.5,30.5C 32.1667,29.1667 32.8333,29.1667 33.5,30.5 Z"/></g>
<g><path style="opacity:0.803" fill="#089342" d="M 47.5,28.5 C 47.8417,29.3382 48.5084,29.6716 49.5,29.5C 49.8333,29.5 50.1667,29.5 50.5,29.5C 50.5,30.1667 50.5,30.8333 50.5,31.5C 49.391,31.5569 48.391,31.8902 47.5,32.5C 46.5,32.5 45.5,32.5 44.5,32.5C 44.5,31.8333 44.1667,31.5 43.5,31.5C 43.5,30.8333 43.5,30.1667 43.5,29.5C 44.8333,29.1667 46.1667,28.8333 47.5,28.5 Z"/></g>
<g><path style="opacity:0.66" fill="#d3be28" d="M 15.5,31.5 C 16.1667,31.5 16.8333,31.5 17.5,31.5C 17.8333,32.1667 18.1667,32.8333 18.5,33.5C 17.8333,33.5 17.5,33.8333 17.5,34.5C 17.1667,34.5 16.8333,34.5 16.5,34.5C 15.8333,34.5 15.1667,34.5 14.5,34.5C 13.5,34.5 12.5,34.5 11.5,34.5C 11.6941,32.0882 13.0274,31.0882 15.5,31.5 Z"/></g>
<g><path style="opacity:0.784" fill="#1b4329" d="M 22.5,27.5 C 22.8333,27.5 23.1667,27.5 23.5,27.5C 24.1667,27.5 24.8333,27.5 25.5,27.5C 25.8333,27.5 26.1667,27.5 26.5,27.5C 26.5,28.1667 26.8333,28.5 27.5,28.5C 28.1667,28.5 28.5,28.8333 28.5,29.5C 26.9219,31.3747 27.2552,32.7081 29.5,33.5C 29.5,33.8333 29.5,34.1667 29.5,34.5C 28.5084,34.3284 27.8417,34.6618 27.5,35.5C 26.1667,35.1667 24.8333,34.8333 23.5,34.5C 23.5,33.8333 23.1667,33.5 22.5,33.5C 22.5,32.8333 22.5,32.1667 22.5,31.5C 24.9327,31.2144 24.9327,30.5477 22.5,29.5C 22.5,28.8333 22.5,28.1667 22.5,27.5 Z"/></g>
<g><path style="opacity:0.697" fill="#1c4329" d="M 39.5,27.5 C 39.8333,27.5 40.1667,27.5 40.5,27.5C 41.1667,27.5 41.8333,27.5 42.5,27.5C 42.8333,27.5 43.1667,27.5 43.5,27.5C 43.5,28.1667 43.5,28.8333 43.5,29.5C 41.0673,30.5477 41.0673,31.2144 43.5,31.5C 44.1667,31.5 44.5,31.8333 44.5,32.5C 44.5,32.8333 44.5,33.1667 44.5,33.5C 43.8333,33.8333 43.1667,34.1667 42.5,34.5C 40.8333,34.5 39.1667,34.5 37.5,34.5C 38.1157,33.2022 38.1157,32.2022 37.5,31.5C 37.5,30.5 37.5,29.5 37.5,28.5C 38.4916,28.6716 39.1583,28.3382 39.5,27.5 Z"/></g>
<g><path style="opacity:0.642" fill="#d3bd28" d="M 50.5,31.5 C 52.9726,31.0882 54.3059,32.0882 54.5,34.5C 53.5,34.5 52.5,34.5 51.5,34.5C 50.8333,34.5 50.1667,34.5 49.5,34.5C 49.1667,34.5 48.8333,34.5 48.5,34.5C 48.5,33.8333 48.1667,33.5 47.5,33.5C 47.5,33.1667 47.5,32.8333 47.5,32.5C 48.391,31.8902 49.391,31.5569 50.5,31.5 Z"/></g>
<g><path style="opacity:0.777" fill="#f8ec32" d="M 9.5,35.5 C 2.46471,35.9836 1.96471,34.9836 8,32.5C 10.5781,32.6824 11.0781,33.6824 9.5,35.5 Z"/></g>
<g><path style="opacity:0.777" fill="#f8ec31" d="M 56.5,35.5 C 54.9219,33.6824 55.4219,32.6824 58,32.5C 64.0353,34.9836 63.5353,35.9836 56.5,35.5 Z"/></g>
<g><path style="opacity:0.769" fill="#009344" d="M 18.5,33.5 C 19.8333,33.5 21.1667,33.5 22.5,33.5C 23.1667,33.5 23.5,33.8333 23.5,34.5C 22.4812,36.1015 20.9812,37.1015 19,37.5C 17.2509,37.2517 16.4176,36.2517 16.5,34.5C 16.8333,34.5 17.1667,34.5 17.5,34.5C 18.1667,34.5 18.5,34.1667 18.5,33.5 Z"/></g>
<g><path style="opacity:0.741" fill="#009343" d="M 44.5,33.5 C 45.5,33.5 46.5,33.5 47.5,33.5C 48.1667,33.5 48.5,33.8333 48.5,34.5C 48.8333,34.5 49.1667,34.5 49.5,34.5C 49.5824,36.2517 48.7491,37.2517 47,37.5C 45.0188,37.1015 43.5188,36.1015 42.5,34.5C 43.1667,34.1667 43.8333,33.8333 44.5,33.5 Z"/></g>
<g><path style="opacity:0.819" fill="#f8ec31" d="M 51.5,34.5 C 52.5,34.5 53.5,34.5 54.5,34.5C 54.8417,35.3382 55.5084,35.6716 56.5,35.5C 56.8039,36.1499 57.1373,36.8165 57.5,37.5C 54.7435,38.982 52.4101,38.482 50.5,36C 51.056,35.6174 51.3893,35.1174 51.5,34.5 Z"/></g>
<g><path style="opacity:0.852" fill="#f9ec31" d="M 11.5,34.5 C 12.5,34.5 13.5,34.5 14.5,34.5C 15.7065,35.8804 15.3731,37.0471 13.5,38C 11.7412,38.7975 10.0745,38.6309 8.5,37.5C 8.86273,36.8165 9.19607,36.1499 9.5,35.5C 10.4916,35.6716 11.1583,35.3382 11.5,34.5 Z"/></g>
<g><path style="opacity:0.495" fill="#0b0b0b" d="M 96.5,50.5 C 100.474,50.1502 103.14,51.8169 104.5,55.5C 104,55.8333 103.5,56.1667 103,56.5C 99.5747,52.2341 96.7414,52.5674 94.5,57.5C 95.9692,63.3743 98.8025,64.0409 103,59.5C 104.479,60.8731 104.312,62.3731 102.5,64C 93.6595,66.1515 90.4928,62.6515 93,53.5C 94.1451,52.3636 95.3117,51.3636 96.5,50.5 Z"/></g>
<g><path style="opacity:0.353" fill="#0a0a0a" d="M 200.5,50.5 C 201.5,50.5 202.5,50.5 203.5,50.5C 203.5,51.5 203.5,52.5 203.5,53.5C 202.5,53.5 201.5,53.5 200.5,53.5C 200.5,52.5 200.5,51.5 200.5,50.5 Z"/></g>
<g><path style="opacity:0.509" fill="#0a0a0a" d="M 116.5,54.5 C 118.792,54.2436 120.959,54.5769 123,55.5C 123.498,58.4816 123.665,61.4816 123.5,64.5C 120.396,65.8407 117.562,65.5074 115,63.5C 114.785,59.8715 116.619,57.8715 120.5,57.5C 118.883,57.3306 117.216,56.9972 115.5,56.5C 115.863,55.8165 116.196,55.1499 116.5,54.5 Z M 118.5,60.5 C 119.376,60.3691 120.043,60.7025 120.5,61.5C 118.192,62.8734 117.525,62.5401 118.5,60.5 Z"/></g>
<g><path style="opacity:0.478" fill="#0a0a0a" d="M 134.5,54.5 C 139.214,54.1734 143.88,54.5067 148.5,55.5C 149.407,58.4212 149.74,61.4212 149.5,64.5C 148.5,64.5 147.5,64.5 146.5,64.5C 145.5,53.8333 144.5,53.8333 143.5,64.5C 142.5,64.5 141.5,64.5 140.5,64.5C 140.813,61.7531 140.48,59.0865 139.5,56.5C 138.914,56.7093 138.414,57.0426 138,57.5C 137.503,59.8098 137.337,62.1432 137.5,64.5C 136.5,64.5 135.5,64.5 134.5,64.5C 134.5,61.1667 134.5,57.8333 134.5,54.5 Z"/></g>
<g><path style="opacity:0.505" fill="#0a0a0a" d="M 160.5,54.5 C 163.187,54.3359 165.854,54.5026 168.5,55C 171.269,58.6068 170.936,61.9401 167.5,65C 166.216,65.6838 165.049,65.5171 164,64.5C 163.51,65.7932 163.343,67.1266 163.5,68.5C 162.5,68.5 161.5,68.5 160.5,68.5C 160.5,63.8333 160.5,59.1667 160.5,54.5 Z M 164.5,56.5 C 167.513,57.3559 168.18,59.1892 166.5,62C 165.552,62.4828 164.552,62.6495 163.5,62.5C 163.325,60.3792 163.659,58.3792 164.5,56.5 Z"/></g>
<g><path style="opacity:0.479" fill="#0a0a0a" d="M 182.5,54.5 C 184.792,54.2436 186.959,54.5769 189,55.5C 189.498,58.4816 189.665,61.4816 189.5,64.5C 187.599,64.4332 185.766,64.7665 184,65.5C 180.928,64.5527 179.928,62.5527 181,59.5C 182.825,58.8971 184.659,58.2304 186.5,57.5C 184.883,57.3306 183.216,56.9972 181.5,56.5C 181.863,55.8165 182.196,55.1499 182.5,54.5 Z M 183.5,60.5 C 184.675,60.281 185.675,60.6143 186.5,61.5C 184.948,62.7979 183.948,62.4646 183.5,60.5 Z"/></g>
<g><path style="opacity:0.431" fill="#0a0a0a" d="M 200.5,54.5 C 201.5,54.5 202.5,54.5 203.5,54.5C 203.5,57.8333 203.5,61.1667 203.5,64.5C 202.5,64.5 201.5,64.5 200.5,64.5C 200.5,61.1667 200.5,57.8333 200.5,54.5 Z"/></g>
<g><path style="opacity:0.507" fill="#090909" d="M 216.5,54.5 C 219.167,54.5 221.833,54.5 224.5,54.5C 224.666,58.5138 224.499,62.5138 224,66.5C 220.693,69.2554 217.526,69.0887 214.5,66C 216.235,65.3486 217.902,65.5153 219.5,66.5C 220.308,66.1924 220.975,65.6924 221.5,65C 214.329,64.1724 212.662,60.6724 216.5,54.5 Z M 218.5,56.5 C 220.484,56.484 221.484,57.484 221.5,59.5C 220.167,63.5 218.833,63.5 217.5,59.5C 217.685,58.4163 218.018,57.4163 218.5,56.5 Z"/></g>
<g><path style="opacity:0.476" fill="#0a0a0a" d="M 235.5,54.5 C 238.448,54.2229 241.281,54.5562 244,55.5C 244.498,58.4816 244.665,61.4816 244.5,64.5C 243.5,64.5 242.5,64.5 241.5,64.5C 241.813,61.7531 241.48,59.0865 240.5,56.5C 239.914,56.7093 239.414,57.0426 239,57.5C 238.503,59.8098 238.337,62.1432 238.5,64.5C 237.5,64.5 236.5,64.5 235.5,64.5C 235.5,61.1667 235.5,57.8333 235.5,54.5 Z"/></g>
</svg>
